<?xml version="1.0" standalone="no"?><!DOCTYPE svg PUBLIC "-//W3C//DTD SVG 1.1//EN" "http://www.w3.org/Graphics/SVG/1.1/DTD/svg11.dtd"><svg t="1536895013388" class="icon" style="" viewBox="0 0 1024 1024" version="1.1" xmlns="http://www.w3.org/2000/svg" p-id="2552" xmlns:xlink="http://www.w3.org/1999/xlink" width="200" height="200"><defs><style type="text/css"></style></defs><path d="M225.8 414.2c-53.9 0-97.8 43.9-97.8 97.8s43.9 97.8 97.8 97.8 97.8-43.9 97.8-97.8-43.9-97.8-97.8-97.8z m0 145c-26 0-47.2-21.2-47.2-47.2 0-26 21.2-47.2 47.2-47.2 26 0 47.2 21.2 47.2 47.2 0 26-21.2 47.2-47.2 47.2zM512 414.2c-53.9 0-97.8 43.9-97.8 97.8s43.9 97.8 97.8 97.8 97.8-43.9 97.8-97.8-43.9-97.8-97.8-97.8z m0 145c-26 0-47.2-21.2-47.2-47.2 0-26 21.2-47.2 47.2-47.2 26 0 47.2 21.2 47.2 47.2 0 26-21.2 47.2-47.2 47.2zM798.2 414.2c-53.9 0-97.8 43.9-97.8 97.8s43.9 97.8 97.8 97.8S896 565.9 896 512s-43.9-97.8-97.8-97.8z m0 145c-26 0-47.2-21.2-47.2-47.2 0-26 21.2-47.2 47.2-47.2 26 0 47.2 21.2 47.2 47.2 0 26-21.2 47.2-47.2 47.2z" p-id="2553"></path></svg>